<?xml version="1.0" encoding="UTF-8" standalone="no"?>
<!DOCTYPE svg PUBLIC "-//W3C//DTD SVG 1.1//EN"
 "http://www.w3.org/Graphics/SVG/1.1/DTD/svg11.dtd">
<!-- Generated by graphviz version 2.26.3 (20100126.1600)
 -->
<!-- Title: G Pages: 1 -->
<svg width="312pt" height="490pt"
 viewBox="0.00 0.00 312.00 490.00" xmlns="http://www.w3.org/2000/svg" xmlns:xlink="http://www.w3.org/1999/xlink">
<g id="graph1" class="graph" transform="scale(1 1) rotate(0) translate(4 486)">
<title>G</title>
<polygon fill="white" stroke="white" points="-4,5 -4,-486 309,-486 309,5 -4,5"/>
<!-- PENDING -->
<g id="node1" class="node"><title>PENDING</title>
<ellipse fill="none" stroke="black" cx="246" cy="-463" rx="58.1882" ry="18.3848"/>
<text text-anchor="middle" x="246" y="-459.4" font-family="Times Roman,serif" font-size="14.00">PENDING</text>
</g>
<!-- LOADING -->
<g id="node3" class="node"><title>LOADING</title>
<ellipse fill="none" stroke="black" cx="117" cy="-389" rx="58.1882" ry="18.3848"/>
<text text-anchor="middle" x="117" y="-385.4" font-family="Times Roman,serif" font-size="14.00">LOADING</text>
</g>
<!-- PENDING&#45;&gt;LOADING -->
<g id="edge2" class="edge"><title>PENDING&#45;&gt;LOADING</title>
<path fill="none" stroke="black" d="M217.69,-446.76C199.039,-436.061 174.417,-421.937 154.19,-410.334"/>
<polygon fill="black" stroke="black" points="155.659,-407.142 145.244,-405.202 152.176,-413.214 155.659,-407.142"/>
</g>
<!-- MOVING -->
<g id="node5" class="node"><title>MOVING</title>
<ellipse fill="none" stroke="black" cx="246" cy="-389" rx="53.2379" ry="18.3848"/>
<text text-anchor="middle" x="246" y="-385.4" font-family="Times Roman,serif" font-size="14.00">MOVING</text>
</g>
<!-- PENDING&#45;&gt;MOVING -->
<g id="edge4" class="edge"><title>PENDING&#45;&gt;MOVING</title>
<path fill="none" stroke="black" d="M240.048,-444.327C239.277,-436.202 239.065,-426.501 239.411,-417.507"/>
<polygon fill="black" stroke="black" points="242.911,-417.619 240.073,-407.411 235.926,-417.16 242.911,-417.619"/>
</g>
<!-- LOADED -->
<g id="node8" class="node"><title>LOADED</title>
<ellipse fill="none" stroke="black" cx="117" cy="-315" rx="53.9477" ry="18.3848"/>
<text text-anchor="middle" x="117" y="-311.4" font-family="Times Roman,serif" font-size="14.00">LOADED</text>
</g>
<!-- LOADING&#45;&gt;LOADED -->
<g id="edge8" class="edge"><title>LOADING&#45;&gt;LOADED</title>
<path fill="none" stroke="black" d="M117,-370.327C117,-362.264 117,-352.648 117,-343.711"/>
<polygon fill="black" stroke="black" points="120.5,-343.667 117,-333.667 113.5,-343.667 120.5,-343.667"/>
</g>
<!-- MOVING&#45;&gt;PENDING -->
<g id="edge6" class="edge"><title>MOVING&#45;&gt;PENDING</title>
<path fill="none" stroke="black" d="M251.927,-407.411C252.71,-415.501 252.934,-425.193 252.6,-434.202"/>
<polygon fill="black" stroke="black" points="249.098,-434.124 251.952,-444.327 256.084,-434.571 249.098,-434.124"/>
</g>
<!-- SOLVING -->
<g id="node10" class="node"><title>SOLVING</title>
<ellipse fill="none" stroke="black" cx="117" cy="-241" rx="56.0679" ry="18.3848"/>
<text text-anchor="middle" x="117" y="-237.4" font-family="Times Roman,serif" font-size="14.00">SOLVING</text>
</g>
<!-- LOADED&#45;&gt;SOLVING -->
<g id="edge10" class="edge"><title>LOADED&#45;&gt;SOLVING</title>
<path fill="none" stroke="black" d="M117,-296.327C117,-288.264 117,-278.648 117,-269.711"/>
<polygon fill="black" stroke="black" points="120.5,-269.667 117,-259.667 113.5,-269.667 120.5,-269.667"/>
</g>
<!-- SOLVED -->
<g id="node12" class="node"><title>SOLVED</title>
<ellipse fill="none" stroke="black" cx="52" cy="-167" rx="51.8276" ry="18.3848"/>
<text text-anchor="middle" x="52" y="-163.4" font-family="Times Roman,serif" font-size="14.00">SOLVED</text>
</g>
<!-- SOLVING&#45;&gt;SOLVED -->
<g id="edge12" class="edge"><title>SOLVING&#45;&gt;SOLVED</title>
<path fill="none" stroke="black" d="M101.265,-223.087C93.2014,-213.906 83.2412,-202.567 74.3915,-192.492"/>
<polygon fill="black" stroke="black" points="76.8188,-189.952 67.5898,-184.748 71.5596,-194.571 76.8188,-189.952"/>
</g>
<!-- ABORTED -->
<g id="node14" class="node"><title>ABORTED</title>
<ellipse fill="none" stroke="black" cx="183" cy="-167" rx="60.8112" ry="18.3848"/>
<text text-anchor="middle" x="183" y="-163.4" font-family="Times Roman,serif" font-size="14.00">ABORTED</text>
</g>
<!-- SOLVING&#45;&gt;ABORTED -->
<g id="edge14" class="edge"><title>SOLVING&#45;&gt;ABORTED</title>
<path fill="none" stroke="black" d="M132.977,-223.087C141.105,-213.974 151.13,-202.734 160.066,-192.714"/>
<polygon fill="black" stroke="black" points="162.897,-194.797 166.942,-185.005 157.673,-190.138 162.897,-194.797"/>
</g>
<!-- SPLITTING -->
<g id="node16" class="node"><title>SPLITTING</title>
<ellipse fill="none" stroke="black" cx="183" cy="-93" rx="65.0538" ry="18.3848"/>
<text text-anchor="middle" x="183" y="-89.4" font-family="Times Roman,serif" font-size="14.00">SPLITTING</text>
</g>
<!-- ABORTED&#45;&gt;SPLITTING -->
<g id="edge16" class="edge"><title>ABORTED&#45;&gt;SPLITTING</title>
<path fill="none" stroke="black" d="M183,-148.327C183,-140.264 183,-130.648 183,-121.711"/>
<polygon fill="black" stroke="black" points="186.5,-121.667 183,-111.667 179.5,-121.667 186.5,-121.667"/>
</g>
<!-- SPLIT -->
<g id="node18" class="node"><title>SPLIT</title>
<ellipse fill="none" stroke="black" cx="183" cy="-19" rx="39.0967" ry="18.3848"/>
<text text-anchor="middle" x="183" y="-15.4" font-family="Times Roman,serif" font-size="14.00">SPLIT</text>
</g>
<!-- SPLITTING&#45;&gt;SPLIT -->
<g id="edge18" class="edge"><title>SPLITTING&#45;&gt;SPLIT</title>
<path fill="none" stroke="black" d="M183,-74.3267C183,-66.2639 183,-56.6477 183,-47.7115"/>
<polygon fill="black" stroke="black" points="186.5,-47.6673 183,-37.6674 179.5,-47.6674 186.5,-47.6673"/>
</g>
</g>
</svg>
