<?xml version="1.0" encoding="UTF-8" standalone="no"?>
<!DOCTYPE svg PUBLIC "-//W3C//DTD SVG 1.1//EN"
 "http://www.w3.org/Graphics/SVG/1.1/DTD/svg11.dtd">
<!-- Generated by graphviz version 2.26.3 (20100126.1600)
 -->
<!-- Title: G Pages: 1 -->
<svg width="209pt" height="564pt"
 viewBox="0.00 0.00 209.00 564.00" xmlns="http://www.w3.org/2000/svg" xmlns:xlink="http://www.w3.org/1999/xlink">
<g id="graph1" class="graph" transform="scale(1 1) rotate(0) translate(4 560)">
<title>G</title>
<polygon fill="white" stroke="white" points="-4,5 -4,-560 206,-560 206,5 -4,5"/>
<!-- IDLE -->
<g id="node1" class="node"><title>IDLE</title>
<ellipse fill="none" stroke="black" cx="144" cy="-463" rx="34.8574" ry="18.3848"/>
<text text-anchor="middle" x="144" y="-459.4" font-family="Times Roman,serif" font-size="14.00">IDLE</text>
</g>
<!-- LOADING -->
<g id="node3" class="node"><title>LOADING</title>
<ellipse fill="none" stroke="black" cx="58" cy="-389" rx="58.1882" ry="18.3848"/>
<text text-anchor="middle" x="58" y="-385.4" font-family="Times Roman,serif" font-size="14.00">LOADING</text>
</g>
<!-- IDLE&#45;&gt;LOADING -->
<g id="edge2" class="edge"><title>IDLE&#45;&gt;LOADING</title>
<path fill="none" stroke="black" d="M125.339,-446.943C113.884,-437.087 98.9936,-424.274 86.1283,-413.203"/>
<polygon fill="black" stroke="black" points="88.2915,-410.447 78.4285,-406.578 83.7258,-415.754 88.2915,-410.447"/>
</g>
<!-- LOADED -->
<g id="node7" class="node"><title>LOADED</title>
<ellipse fill="none" stroke="black" cx="60" cy="-315" rx="53.9477" ry="18.3848"/>
<text text-anchor="middle" x="60" y="-311.4" font-family="Times Roman,serif" font-size="14.00">LOADED</text>
</g>
<!-- LOADING&#45;&gt;LOADED -->
<g id="edge6" class="edge"><title>LOADING&#45;&gt;LOADED</title>
<path fill="none" stroke="black" d="M58.5047,-370.327C58.7226,-362.264 58.9825,-352.648 59.224,-343.711"/>
<polygon fill="black" stroke="black" points="62.7239,-343.758 59.4955,-333.667 55.7265,-343.569 62.7239,-343.758"/>
</g>
<!-- GETTING -->
<g id="node4" class="node"><title>GETTING</title>
<ellipse fill="none" stroke="black" cx="144" cy="-537" rx="56.7776" ry="18.3848"/>
<text text-anchor="middle" x="144" y="-533.4" font-family="Times Roman,serif" font-size="14.00">GETTING</text>
</g>
<!-- GETTING&#45;&gt;IDLE -->
<g id="edge4" class="edge"><title>GETTING&#45;&gt;IDLE</title>
<path fill="none" stroke="black" d="M144,-518.327C144,-510.264 144,-500.648 144,-491.711"/>
<polygon fill="black" stroke="black" points="147.5,-491.667 144,-481.667 140.5,-491.667 147.5,-491.667"/>
</g>
<!-- SOLVING -->
<g id="node9" class="node"><title>SOLVING</title>
<ellipse fill="none" stroke="black" cx="89" cy="-241" rx="56.0679" ry="18.3848"/>
<text text-anchor="middle" x="89" y="-237.4" font-family="Times Roman,serif" font-size="14.00">SOLVING</text>
</g>
<!-- LOADED&#45;&gt;SOLVING -->
<g id="edge8" class="edge"><title>LOADED&#45;&gt;SOLVING</title>
<path fill="none" stroke="black" d="M67.3179,-296.327C70.571,-288.026 74.4693,-278.078 78.0578,-268.921"/>
<polygon fill="black" stroke="black" points="81.3948,-269.999 81.7849,-259.411 74.8774,-267.445 81.3948,-269.999"/>
</g>
<!-- SOLVING&#45;&gt;IDLE -->
<g id="edge10" class="edge"><title>SOLVING&#45;&gt;IDLE</title>
<path fill="none" stroke="black" d="M103.1,-259.319C110.244,-269.56 118.366,-282.874 123,-296 139.415,-342.495 143.314,-400.252 144.065,-434.224"/>
<polygon fill="black" stroke="black" points="140.568,-434.425 144.21,-444.374 147.567,-434.325 140.568,-434.425"/>
</g>
<!-- ABORTING -->
<g id="node12" class="node"><title>ABORTING</title>
<ellipse fill="none" stroke="black" cx="89" cy="-167" rx="65.0538" ry="18.3848"/>
<text text-anchor="middle" x="89" y="-163.4" font-family="Times Roman,serif" font-size="14.00">ABORTING</text>
</g>
<!-- SOLVING&#45;&gt;ABORTING -->
<g id="edge12" class="edge"><title>SOLVING&#45;&gt;ABORTING</title>
<path fill="none" stroke="black" d="M89,-222.327C89,-214.264 89,-204.648 89,-195.711"/>
<polygon fill="black" stroke="black" points="92.5001,-195.667 89,-185.667 85.5001,-195.667 92.5001,-195.667"/>
</g>
<!-- ABORTED -->
<g id="node14" class="node"><title>ABORTED</title>
<ellipse fill="none" stroke="black" cx="91" cy="-93" rx="60.8112" ry="18.3848"/>
<text text-anchor="middle" x="91" y="-89.4" font-family="Times Roman,serif" font-size="14.00">ABORTED</text>
</g>
<!-- ABORTING&#45;&gt;ABORTED -->
<g id="edge14" class="edge"><title>ABORTING&#45;&gt;ABORTED</title>
<path fill="none" stroke="black" d="M89.5047,-148.327C89.7226,-140.264 89.9825,-130.648 90.224,-121.711"/>
<polygon fill="black" stroke="black" points="93.7239,-121.758 90.4955,-111.667 86.7265,-121.569 93.7239,-121.758"/>
</g>
<!-- SPLITTING -->
<g id="node16" class="node"><title>SPLITTING</title>
<ellipse fill="none" stroke="black" cx="136" cy="-19" rx="65.0538" ry="18.3848"/>
<text text-anchor="middle" x="136" y="-15.4" font-family="Times Roman,serif" font-size="14.00">SPLITTING</text>
</g>
<!-- ABORTED&#45;&gt;SPLITTING -->
<g id="edge16" class="edge"><title>ABORTED&#45;&gt;SPLITTING</title>
<path fill="none" stroke="black" d="M102.124,-74.7079C107.37,-66.0803 113.736,-55.6112 119.528,-46.088"/>
<polygon fill="black" stroke="black" points="122.643,-47.7009 124.848,-37.3382 116.662,-44.0639 122.643,-47.7009"/>
</g>
<!-- SPLITTING&#45;&gt;IDLE -->
<g id="edge18" class="edge"><title>SPLITTING&#45;&gt;IDLE</title>
<path fill="none" stroke="black" d="M145.755,-37.5812C159.258,-65.0743 182,-118.568 182,-167 182,-315 182,-315 182,-315 182,-357.951 166.8,-405.774 155.626,-435.125"/>
<polygon fill="black" stroke="black" points="152.265,-434.11 151.874,-444.698 158.782,-436.665 152.265,-434.11"/>
</g>
</g>
</svg>
